<svg xmlns="http://www.w3.org/2000/svg" xmlns:xlink="http://www.w3.org/1999/xlink" width="1608" height="808" viewBox="0 0 1608 808"><defs><clipPath id="clip-path"><rect id="Rectangle_2471" data-name="Rectangle 2471" width="1608" height="808" transform="translate(0 60)" fill="#fff" stroke="#707070" stroke-width="1"></rect></clipPath><radialGradient id="radial-gradient" cx="0.491" cy="1" r="0.863" gradientTransform="translate(0.025 1.491) rotate(-90) scale(1 0.466)" gradientUnits="objectBoundingBox"><stop offset="0" stop-color="#404040" stop-opacity="0.745"></stop><stop offset="1"></stop></radialGradient><clipPath id="clip-path-2"><path id="Trac&#xE9;_4674" data-name="Trac&#xE9; 4674" d="M0,0,1682.805,34.856,1719.6,825.67,36.794,790.814Z" fill="none"></path></clipPath><clipPath id="clip-path-3"><path id="Trac&#xE9;_4673" data-name="Trac&#xE9; 4673" d="M0,0,1682.805,34.856,1719.6,825.67,36.794,790.813Z" fill="none"></path></clipPath><clipPath id="clip-path-5"><path id="Trac&#xE9;_4659" data-name="Trac&#xE9; 4659" d="M0,0,1682.805,34.856l19.218,413.066L19.218,413.066Z" fill="none"></path></clipPath><clipPath id="clip-path-6"><path id="Trac&#xE9;_4660" data-name="Trac&#xE9; 4660" d="M0,0,1679.2,34.782l19.868,427.036L19.868,427.036Z" fill="none"></path></clipPath><clipPath id="clip-path-7"><path id="Trac&#xE9;_4661" data-name="Trac&#xE9; 4661" d="M0,0,1675.593,34.707l20.518,441.006L20.518,441.006Z" fill="none"></path></clipPath><clipPath id="clip-path-8"><path id="Trac&#xE9;_4662" data-name="Trac&#xE9; 4662" d="M0,0,1671.985,34.632l21.179,455.216L21.18,455.216Z" fill="none"></path></clipPath><clipPath id="clip-path-9"><path id="Trac&#xE9;_4663" data-name="Trac&#xE9; 4663" d="M0,0,1668.381,34.558l21.831,469.222L21.831,469.222Z" fill="none"></path></clipPath><clipPath id="clip-path-10"><path id="Trac&#xE9;_4664" data-name="Trac&#xE9; 4664" d="M0,0,1664.772,34.483l22.483,483.22L22.483,483.22Z" fill="none"></path></clipPath><clipPath id="clip-path-11"><path id="Trac&#xE9;_4665" data-name="Trac&#xE9; 4665" d="M0,0,1661.163,34.408l23.133,497.2L23.133,497.2Z" fill="none"></path></clipPath><clipPath id="clip-path-12"><path id="Trac&#xE9;_4666" data-name="Trac&#xE9; 4666" d="M0,0,1657.559,34.334,1681.342,545.5,23.783,511.163Z" fill="none"></path></clipPath><clipPath id="clip-path-13"><path id="Trac&#xE9;_4667" data-name="Trac&#xE9; 4667" d="M0,0,1653.951,34.259l24.432,525.113L24.432,525.113Z" fill="none"></path></clipPath><clipPath id="clip-path-14"><path id="Trac&#xE9;_4668" data-name="Trac&#xE9; 4668" d="M0,0,1650.347,34.184l25.08,539.051L25.08,539.051Z" fill="none"></path></clipPath><clipPath id="clip-path-15"><path id="Trac&#xE9;_4669" data-name="Trac&#xE9; 4669" d="M0,0,1646.738,34.109l25.728,552.977L25.728,552.977Z" fill="none"></path></clipPath><clipPath id="clip-path-16"><path id="Trac&#xE9;_4670" data-name="Trac&#xE9; 4670" d="M0,0,1643.129,34.035,1669.5,600.779,26.369,566.744Z" fill="none"></path></clipPath><clipPath id="clip-path-17"><path id="Trac&#xE9;_4671" data-name="Trac&#xE9; 4671" d="M0,0,1639.524,33.96l27.019,580.715L27.019,580.715Z" fill="none"></path></clipPath></defs><g id="Groupe_de_masques_5542" data-name="Groupe de masques 5542" transform="translate(0 -60)" clip-path="url(#clip-path)"><rect id="Rectangle_1622" data-name="Rectangle 1622" width="1460" height="801" rx="24" transform="translate(74 67)"></rect><rect id="Rectangle_1626" data-name="Rectangle 1626" width="1608" height="808" transform="translate(0 60)" fill="url(#radial-gradient)"></rect><g id="Groupe_5928" data-name="Groupe 5928" transform="matrix(0.978, 0.208, -0.208, 0.978, 63.052, 40.725)" opacity="0.235"><g id="Groupe_5193" data-name="Groupe 5193" clip-path="url(#clip-path-2)"><g id="Groupe_5192" data-name="Groupe 5192" transform="translate(0 0.001)"><g id="Groupe_5191" data-name="Groupe 5191" clip-path="url(#clip-path-3)"><g id="Groupe_5190" data-name="Groupe 5190" transform="translate(0 -0.001)"><g id="Groupe_5189" data-name="Groupe 5189"><g id="Groupe_5188" data-name="Groupe 5188" clip-path="url(#clip-path-2)"><g id="Groupe_5151" data-name="Groupe 5151"><g id="Groupe_5150" data-name="Groupe 5150"><g id="Groupe_5149" data-name="Groupe 5149" clip-path="url(#clip-path-5)"><path id="Trac&#xE9;_1843" data-name="Trac&#xE9; 1843" d="M-.093,397.523C362.242,5.474,631.631-29.692,813.3,14.844,904.066,37.1,1011.948,88.807,1217.643,128.7c191.969,37.233,349.444,40.96,452.59,38.271" transform="translate(19.423 15.261)" fill="none" stroke="#fff" stroke-miterlimit="10" stroke-width="0.976"></path></g></g></g><g id="Groupe_5154" data-name="Groupe 5154" transform="translate(4.241 17.58)" opacity="0.5"><g id="Groupe_5153" data-name="Groupe 5153"><g id="Groupe_5152" data-name="Groupe 5152" clip-path="url(#clip-path-6)"><path id="Trac&#xE9;_1844" data-name="Trac&#xE9; 1844" d="M-.1,411.528C361.419,6.044,629.346-30.543,809.741,15.148c92.709,23.758,199.481,79.55,404.087,119.267,191.816,37.236,349.146,36.485,452.027,30.162" transform="translate(20.08 15.227)" fill="none" stroke="#fff" stroke-miterlimit="10" stroke-width="0.979"></path></g></g></g><g id="Groupe_5157" data-name="Groupe 5157" transform="translate(8.482 35.16)"><g id="Groupe_5156" data-name="Groupe 5156"><g id="Groupe_5155" data-name="Groupe 5155" clip-path="url(#clip-path-7)"><path id="Trac&#xE9;_1845" data-name="Trac&#xE9; 1845" d="M-.1,425.534C360.6,6.615,627.062-31.393,806.184,15.453c94.65,25.265,200.312,85.138,403.829,124.677,191.663,37.24,348.849,32.011,451.464,22.052" transform="translate(20.736 15.193)" fill="none" stroke="#fff" stroke-miterlimit="10" stroke-width="0.982"></path></g></g></g><g id="Groupe_5160" data-name="Groupe 5160" transform="translate(12.711 52.5)" opacity="0.5"><g id="Groupe_5159" data-name="Groupe 5159"><g id="Groupe_5158" data-name="Groupe 5158" clip-path="url(#clip-path-8)"><path id="Trac&#xE9;_1846" data-name="Trac&#xE9; 1846" d="M-.1,439.787C359.774,7.433,624.816-32.631,802.627,16.005,899.239,42.432,1003.77,106.73,1206.2,146.091c191.51,37.244,348.552,27.537,450.9,13.943" transform="translate(21.404 15.153)" fill="none" stroke="#fff" stroke-miterlimit="10" stroke-width="0.986"></path></g></g></g><g id="Groupe_5163" data-name="Groupe 5163" transform="translate(16.951 70.044)"><g id="Groupe_5162" data-name="Groupe 5162"><g id="Groupe_5161" data-name="Groupe 5161" clip-path="url(#clip-path-9)"><path id="Trac&#xE9;_1847" data-name="Trac&#xE9; 1847" d="M-.106,453.837C358.952,8.048,622.541-33.548,799.069,16.355c98.56,27.861,201.974,96.312,403.313,135.5,191.357,37.247,348.255,23.061,450.339,5.832" transform="translate(22.062 15.11)" fill="none" stroke="#fff" stroke-miterlimit="10" stroke-width="0.989"></path></g></g></g><g id="Groupe_5166" data-name="Groupe 5166" transform="translate(21.19 87.596)" opacity="0.5"><g id="Groupe_5165" data-name="Groupe 5165"><g id="Groupe_5164" data-name="Groupe 5164" clip-path="url(#clip-path-10)"><path id="Trac&#xE9;_1848" data-name="Trac&#xE9; 1848" d="M-.11,467.871C358.129,8.646,620.265-34.436,795.512,16.687c100.507,29.319,202.805,101.9,403.056,140.9a1137.5,1137.5,0,0,0,449.776-2.277" transform="translate(22.72 15.078)" fill="none" stroke="#fff" stroke-miterlimit="10" stroke-width="0.992"></path></g></g></g><g id="Groupe_5169" data-name="Groupe 5169" transform="translate(25.431 105.167)"><g id="Groupe_5168" data-name="Groupe 5168"><g id="Groupe_5167" data-name="Groupe 5167" clip-path="url(#clip-path-11)"><path id="Trac&#xE9;_1849" data-name="Trac&#xE9; 1849" d="M-.113,481.888C357.306,9.229,617.986-35.3,791.954,17c102.452,30.8,203.638,107.486,402.8,146.314,191.05,37.254,347.661,14.113,449.214-10.387" transform="translate(23.377 15.042)" fill="none" stroke="#fff" stroke-miterlimit="10" stroke-width="0.995"></path></g></g></g><g id="Groupe_5172" data-name="Groupe 5172" transform="translate(29.672 122.752)" opacity="0.5"><g id="Groupe_5171" data-name="Groupe 5171"><g id="Groupe_5170" data-name="Groupe 5170" clip-path="url(#clip-path-12)"><path id="Trac&#xE9;_1850" data-name="Trac&#xE9; 1850" d="M-.116,495.891C356.484,9.8,615.7-36.133,788.4,17.3c104.4,32.3,204.468,113.074,402.541,151.724,190.9,37.258,347.364,9.638,448.651-18.5" transform="translate(24.032 15.006)" fill="none" stroke="#fff" stroke-miterlimit="10" stroke-width="0.999"></path></g></g></g><g id="Groupe_5175" data-name="Groupe 5175" transform="translate(33.914 140.352)"><g id="Groupe_5174" data-name="Groupe 5174"><g id="Groupe_5173" data-name="Groupe 5173" clip-path="url(#clip-path-13)"><path id="Trac&#xE9;_1851" data-name="Trac&#xE9; 1851" d="M-.12,509.88C355.661,10.35,613.418-36.946,784.838,17.593c106.338,33.832,205.3,118.66,402.284,157.133,190.745,37.261,347.067,5.164,448.089-26.606" transform="translate(24.688 14.969)" fill="none" stroke="#fff" stroke-miterlimit="10" stroke-width="1.002"></path></g></g></g><g id="Groupe_5178" data-name="Groupe 5178" transform="translate(38.157 157.965)" opacity="0.5"><g id="Groupe_5177" data-name="Groupe 5177"><g id="Groupe_5176" data-name="Groupe 5176" clip-path="url(#clip-path-14)"><path id="Trac&#xE9;_1852" data-name="Trac&#xE9; 1852" d="M-.123,523.856C354.839,10.891,611.13-37.735,781.281,17.868,889.559,53.251,987.413,142.115,1183.307,180.41c190.591,37.265,346.77.689,447.527-34.715" transform="translate(25.342 14.933)" fill="none" stroke="#fff" stroke-miterlimit="10" stroke-width="1.005"></path></g></g></g><g id="Groupe_5181" data-name="Groupe 5181" transform="translate(42.401 175.589)"><g id="Groupe_5180" data-name="Groupe 5180"><g id="Groupe_5179" data-name="Groupe 5179" clip-path="url(#clip-path-15)"><path id="Trac&#xE9;_1853" data-name="Trac&#xE9; 1853" d="M-.126,537.82C354.016,11.42,608.838-38.5,777.724,18.13c110.215,36.96,206.963,129.835,401.768,167.952,190.438,37.268,346.473-3.786,446.964-42.824" transform="translate(25.996 14.897)" fill="none" stroke="#fff" stroke-miterlimit="10" stroke-width="1.008"></path></g></g></g><g id="Groupe_5184" data-name="Groupe 5184" transform="translate(46.651 193.372)" opacity="0.5"><g id="Groupe_5183" data-name="Groupe 5183"><g id="Groupe_5182" data-name="Groupe 5182" clip-path="url(#clip-path-16)"><path id="Trac&#xE9;_1854" data-name="Trac&#xE9; 1854" d="M-.129,551.621C353.194,11.786,606.507-39.008,774.166,18.231c112.125,38.825,207.794,135.422,401.51,173.362,190.286,37.271,346.176-8.26,446.4-50.935" transform="translate(26.643 14.865)" fill="none" stroke="#fff" stroke-miterlimit="10" stroke-width="1.011"></path></g></g></g><g id="Groupe_5187" data-name="Groupe 5187" transform="translate(50.893 210.95)"><g id="Groupe_5186" data-name="Groupe 5186"><g id="Groupe_5185" data-name="Groupe 5185" clip-path="url(#clip-path-17)"><path id="Trac&#xE9;_1855" data-name="Trac&#xE9; 1855" d="M-.133,565.634C352.371,12.364,604.223-39.851,770.609,18.542c114.066,40.332,208.625,141.01,401.253,178.772,190.132,37.275,345.879-12.735,445.839-59.044" transform="translate(27.299 14.826)" fill="none" stroke="#fff" stroke-miterlimit="10" stroke-width="1.015"></path></g></g></g></g></g></g></g></g></g></g></g></svg>