<svg xmlns="http://www.w3.org/2000/svg" viewBox="0 0 512 512">
  <defs>
    <linearGradient id="ig" x1="0%" y1="100%" x2="100%" y2="0%">
      <stop offset="0%" stop-color="#feda75"/>
      <stop offset="25%" stop-color="#fa7e1e"/>
      <stop offset="50%" stop-color="#d62976"/>
      <stop offset="75%" stop-color="#962fbf"/>
      <stop offset="100%" stop-color="#4f5bd5"/>
    </linearGradient>
  </defs>
  <circle cx="256" cy="256" r="246" fill="url(#ig)"/>
  <g fill="#fff" transform="translate(256,256) scale(-1,1)">
    <rect x="55" y="-8" width="105" height="16" rx="4" transform="rotate(150)"/>
    <rect x="55" y="-10" width="100" height="20" rx="5" transform="rotate(125)"/>
    <rect x="55" y="-13" width="95" height="25" rx="5" transform="rotate(100)"/>
    <rect x="55" y="-15" width="90" height="30" rx="6" transform="rotate(75)"/>
    <rect x="55" y="-18" width="90" height="36" rx="6" transform="rotate(50)"/>
    <rect x="55" y="-21" width="90" height="42" rx="7" transform="rotate(25)"/>
    <rect x="55" y="-24" width="90" height="48" rx="7" transform="rotate(0)"/>
    <rect x="55" y="-27" width="90" height="54" rx="8" transform="rotate(-25)"/>
    <rect x="55" y="-30" width="95" height="60" rx="8" transform="rotate(-50)"/>
    <rect x="55" y="-33" width="100" height="66" rx="9" transform="rotate(-75)"/>
    <rect x="55" y="-36" width="100" height="72" rx="9" transform="rotate(-100)"/>
    <rect x="55" y="-39" width="105" height="78" rx="10" transform="rotate(-125)"/>
    <rect x="55" y="-42" width="110" height="84" rx="10" transform="rotate(-150)"/>
  </g>
</svg>
