<svg xmlns="http://www.w3.org/2000/svg" viewBox="0 0 512 512">
  <circle cx="256" cy="256" r="246" fill="#1877F2"/>
  <g fill="#b3dcff" transform="translate(256,256)">
    <rect x="55" y="-8" width="105" height="16" rx="4" transform="rotate(150)"/>
    <rect x="55" y="-10" width="100" height="20" rx="5" transform="rotate(125)"/>
    <rect x="55" y="-13" width="95" height="25" rx="5" transform="rotate(100)"/>
    <rect x="55" y="-15" width="90" height="30" rx="6" transform="rotate(75)"/>
    <rect x="55" y="-18" width="90" height="36" rx="6" transform="rotate(50)"/>
    <rect x="55" y="-21" width="90" height="42" rx="7" transform="rotate(25)"/>
    <rect x="55" y="-24" width="90" height="48" rx="7" transform="rotate(0)"/>
    <rect x="55" y="-27" width="90" height="54" rx="8" transform="rotate(-25)"/>
    <rect x="55" y="-30" width="95" height="60" rx="8" transform="rotate(-50)"/>
    <rect x="55" y="-33" width="100" height="66" rx="9" transform="rotate(-75)"/>
    <rect x="55" y="-36" width="100" height="72" rx="9" transform="rotate(-100)"/>
    <rect x="55" y="-39" width="105" height="78" rx="10" transform="rotate(-125)"/>
    <rect x="55" y="-42" width="110" height="84" rx="10" transform="rotate(-150)"/>
  </g>
</svg>
